<mxfile host="app.diagrams.net" agent="Mozilla/5.0 (Windows NT 10.0; Win64; x64) AppleWebKit/537.36 (KHTML, like Gecko) Chrome/134.0.0.0 YaBrowser/25.4.0.0 Safari/537.36" version="27.1.4">
  <diagram name="Страница — 1" id="ySpHOT_LgS6eUz2t49ZZ">
    <mxGraphModel dx="1426" dy="796" grid="1" gridSize="10" guides="1" tooltips="1" connect="1" arrows="1" fold="1" page="1" pageScale="1" pageWidth="827" pageHeight="1169" math="0" shadow="0">
      <root>
        <mxCell id="0" />
        <mxCell id="1" parent="0" />
        <mxCell id="F-sYXK9-wxl05gE5Muyb-6" style="edgeStyle=orthogonalEdgeStyle;rounded=0;orthogonalLoop=1;jettySize=auto;html=1;exitX=0.25;exitY=1;exitDx=0;exitDy=0;entryX=0.5;entryY=0;entryDx=0;entryDy=0;" edge="1" parent="1" source="F-sYXK9-wxl05gE5Muyb-1" target="F-sYXK9-wxl05gE5Muyb-4">
          <mxGeometry relative="1" as="geometry" />
        </mxCell>
        <mxCell id="F-sYXK9-wxl05gE5Muyb-7" style="edgeStyle=orthogonalEdgeStyle;rounded=0;orthogonalLoop=1;jettySize=auto;html=1;exitX=0.5;exitY=1;exitDx=0;exitDy=0;entryX=0.5;entryY=0;entryDx=0;entryDy=0;" edge="1" parent="1" source="F-sYXK9-wxl05gE5Muyb-1" target="F-sYXK9-wxl05gE5Muyb-2">
          <mxGeometry relative="1" as="geometry">
            <mxPoint x="395" y="240" as="targetPoint" />
          </mxGeometry>
        </mxCell>
        <mxCell id="F-sYXK9-wxl05gE5Muyb-8" style="edgeStyle=orthogonalEdgeStyle;rounded=0;orthogonalLoop=1;jettySize=auto;html=1;exitX=0.75;exitY=1;exitDx=0;exitDy=0;entryX=0.5;entryY=0;entryDx=0;entryDy=0;" edge="1" parent="1" source="F-sYXK9-wxl05gE5Muyb-1" target="F-sYXK9-wxl05gE5Muyb-5">
          <mxGeometry relative="1" as="geometry" />
        </mxCell>
        <mxCell id="F-sYXK9-wxl05gE5Muyb-1" value="Выбор лучшей детали для производства" style="rounded=0;whiteSpace=wrap;html=1;" vertex="1" parent="1">
          <mxGeometry x="320" y="120" width="150" height="60" as="geometry" />
        </mxCell>
        <mxCell id="F-sYXK9-wxl05gE5Muyb-16" style="edgeStyle=orthogonalEdgeStyle;rounded=0;orthogonalLoop=1;jettySize=auto;html=1;exitX=0.75;exitY=1;exitDx=0;exitDy=0;entryX=1;entryY=0.5;entryDx=0;entryDy=0;" edge="1" parent="1" source="F-sYXK9-wxl05gE5Muyb-2" target="F-sYXK9-wxl05gE5Muyb-9">
          <mxGeometry relative="1" as="geometry" />
        </mxCell>
        <mxCell id="F-sYXK9-wxl05gE5Muyb-17" style="edgeStyle=orthogonalEdgeStyle;rounded=0;orthogonalLoop=1;jettySize=auto;html=1;exitX=0.75;exitY=1;exitDx=0;exitDy=0;entryX=1;entryY=0.5;entryDx=0;entryDy=0;" edge="1" parent="1" source="F-sYXK9-wxl05gE5Muyb-2" target="F-sYXK9-wxl05gE5Muyb-10">
          <mxGeometry relative="1" as="geometry" />
        </mxCell>
        <mxCell id="F-sYXK9-wxl05gE5Muyb-18" style="edgeStyle=orthogonalEdgeStyle;rounded=0;orthogonalLoop=1;jettySize=auto;html=1;exitX=0.75;exitY=1;exitDx=0;exitDy=0;entryX=1;entryY=0.5;entryDx=0;entryDy=0;" edge="1" parent="1" source="F-sYXK9-wxl05gE5Muyb-2" target="F-sYXK9-wxl05gE5Muyb-11">
          <mxGeometry relative="1" as="geometry" />
        </mxCell>
        <mxCell id="F-sYXK9-wxl05gE5Muyb-2" value="Цена" style="rounded=0;whiteSpace=wrap;html=1;" vertex="1" parent="1">
          <mxGeometry x="345" y="280" width="100" height="40" as="geometry" />
        </mxCell>
        <mxCell id="F-sYXK9-wxl05gE5Muyb-19" style="edgeStyle=orthogonalEdgeStyle;rounded=0;orthogonalLoop=1;jettySize=auto;html=1;exitX=0.5;exitY=1;exitDx=0;exitDy=0;entryX=0;entryY=0.5;entryDx=0;entryDy=0;" edge="1" parent="1" source="F-sYXK9-wxl05gE5Muyb-4" target="F-sYXK9-wxl05gE5Muyb-9">
          <mxGeometry relative="1" as="geometry" />
        </mxCell>
        <mxCell id="F-sYXK9-wxl05gE5Muyb-20" style="edgeStyle=orthogonalEdgeStyle;rounded=0;orthogonalLoop=1;jettySize=auto;html=1;exitX=0.5;exitY=1;exitDx=0;exitDy=0;entryX=0;entryY=0.5;entryDx=0;entryDy=0;" edge="1" parent="1" source="F-sYXK9-wxl05gE5Muyb-4" target="F-sYXK9-wxl05gE5Muyb-10">
          <mxGeometry relative="1" as="geometry" />
        </mxCell>
        <mxCell id="F-sYXK9-wxl05gE5Muyb-21" style="edgeStyle=orthogonalEdgeStyle;rounded=0;orthogonalLoop=1;jettySize=auto;html=1;exitX=0.5;exitY=1;exitDx=0;exitDy=0;entryX=0;entryY=0.5;entryDx=0;entryDy=0;" edge="1" parent="1" source="F-sYXK9-wxl05gE5Muyb-4" target="F-sYXK9-wxl05gE5Muyb-11">
          <mxGeometry relative="1" as="geometry" />
        </mxCell>
        <mxCell id="F-sYXK9-wxl05gE5Muyb-4" value="Качество" style="rounded=0;whiteSpace=wrap;html=1;" vertex="1" parent="1">
          <mxGeometry x="180" y="280" width="100" height="40" as="geometry" />
        </mxCell>
        <mxCell id="F-sYXK9-wxl05gE5Muyb-13" style="edgeStyle=orthogonalEdgeStyle;rounded=0;orthogonalLoop=1;jettySize=auto;html=1;exitX=0.5;exitY=1;exitDx=0;exitDy=0;entryX=1;entryY=0.5;entryDx=0;entryDy=0;" edge="1" parent="1" source="F-sYXK9-wxl05gE5Muyb-5" target="F-sYXK9-wxl05gE5Muyb-9">
          <mxGeometry relative="1" as="geometry" />
        </mxCell>
        <mxCell id="F-sYXK9-wxl05gE5Muyb-14" style="edgeStyle=orthogonalEdgeStyle;rounded=0;orthogonalLoop=1;jettySize=auto;html=1;exitX=0.5;exitY=1;exitDx=0;exitDy=0;entryX=1;entryY=0.5;entryDx=0;entryDy=0;" edge="1" parent="1" source="F-sYXK9-wxl05gE5Muyb-5" target="F-sYXK9-wxl05gE5Muyb-10">
          <mxGeometry relative="1" as="geometry" />
        </mxCell>
        <mxCell id="F-sYXK9-wxl05gE5Muyb-15" style="edgeStyle=orthogonalEdgeStyle;rounded=0;orthogonalLoop=1;jettySize=auto;html=1;exitX=0.5;exitY=1;exitDx=0;exitDy=0;entryX=1;entryY=0.5;entryDx=0;entryDy=0;" edge="1" parent="1" source="F-sYXK9-wxl05gE5Muyb-5" target="F-sYXK9-wxl05gE5Muyb-11">
          <mxGeometry relative="1" as="geometry" />
        </mxCell>
        <mxCell id="F-sYXK9-wxl05gE5Muyb-5" value="Сроки" style="rounded=0;whiteSpace=wrap;html=1;" vertex="1" parent="1">
          <mxGeometry x="520" y="280" width="100" height="40" as="geometry" />
        </mxCell>
        <mxCell id="F-sYXK9-wxl05gE5Muyb-9" value="Деталь 1" style="rounded=0;whiteSpace=wrap;html=1;" vertex="1" parent="1">
          <mxGeometry x="280" y="400" width="80" height="40" as="geometry" />
        </mxCell>
        <mxCell id="F-sYXK9-wxl05gE5Muyb-10" value="Деталь 2" style="rounded=0;whiteSpace=wrap;html=1;" vertex="1" parent="1">
          <mxGeometry x="280" y="480" width="80" height="40" as="geometry" />
        </mxCell>
        <mxCell id="F-sYXK9-wxl05gE5Muyb-11" value="Деталь 3" style="rounded=0;whiteSpace=wrap;html=1;" vertex="1" parent="1">
          <mxGeometry x="280" y="560" width="80" height="40" as="geometry" />
        </mxCell>
      </root>
    </mxGraphModel>
  </diagram>
</mxfile>
